<?xml version="1.0" encoding="iso-8859-1"?>
<!-- Generator: Adobe Illustrator 18.0.0, SVG Export Plug-In . SVG Version: 6.00 Build 0)  -->
<!DOCTYPE svg PUBLIC "-//W3C//DTD SVG 1.1//EN" "http://www.w3.org/Graphics/SVG/1.1/DTD/svg11.dtd">
<svg version="1.1" id="Capa_1" xmlns="http://www.w3.org/2000/svg" xmlns:xlink="http://www.w3.org/1999/xlink" x="0px" y="0px"
	 viewBox="0 0 56 56" style="enable-background:new 0 0 56 56;" xml:space="preserve">
<g>
	<path d="M18,35h-7c-0.553,0-1,0.447-1,1s0.447,1,1,1h7c0.553,0,1-0.447,1-1S18.553,35,18,35z"/>
	<path d="M18,31h-5c-0.553,0-1,0.447-1,1s0.447,1,1,1h5c0.553,0,1-0.447,1-1S18.553,31,18,31z"/>
	<path d="M18,27h-7c-0.553,0-1,0.447-1,1s0.447,1,1,1h7c0.553,0,1-0.447,1-1S18.553,27,18,27z"/>
	<path d="M18,23h-5c-0.553,0-1,0.447-1,1s0.447,1,1,1h5c0.553,0,1-0.447,1-1S18.553,23,18,23z"/>
	<path d="M55.997,27.515c-0.131-9.414-7.335-17.192-16.492-18.35C39.811,8.633,40,8.024,40,7.367V3c0-0.285-0.122-0.558-0.336-0.747
		c-0.213-0.19-0.496-0.28-0.781-0.246l-34,4C4.503,6.052,4.181,6.31,4.056,6.672C3.93,7.034,4.021,7.437,4.293,7.707L10,13.414
		v4.316C4.161,22.018,0,30.563,0,38.5c0,1.772,0.217,3.448,0.63,5.024c0.002,0.007,0,0.013,0.002,0.02
		c0.008,0.031,0.02,0.059,0.028,0.09c0.13,0.482,0.277,0.955,0.445,1.417c0.012,0.034,0.023,0.07,0.036,0.104
		c0.175,0.473,0.37,0.935,0.585,1.386c0.04,0.084,0.084,0.165,0.125,0.249c0.174,0.349,0.36,0.691,0.558,1.027
		c0.068,0.115,0.133,0.231,0.203,0.344c0.236,0.379,0.486,0.75,0.753,1.11c0.089,0.121,0.187,0.236,0.279,0.354
		c0.202,0.257,0.412,0.51,0.63,0.757c0.116,0.131,0.231,0.262,0.352,0.39c0.308,0.328,0.627,0.649,0.965,0.958
		c0.082,0.074,0.17,0.144,0.253,0.218c0.296,0.261,0.603,0.514,0.921,0.76c0.118,0.091,0.235,0.181,0.356,0.27
		c0.406,0.3,0.823,0.593,1.263,0.87C8.544,53.947,8.729,54,8.917,54h32.166c0.188,0,0.373-0.053,0.532-0.153
		c0.483-0.303,0.938-0.626,1.38-0.958c0.075-0.057,0.15-0.113,0.224-0.17C47.66,49.287,50,44.413,50,38.5
		c0-7.938-4.161-16.482-10-20.77v-1.522c5.418,0.985,9.628,5.426,9.973,10.919c0.018,0.275,0.026,0.555,0.027,0.838
		c0.003,1.46,1.064,2.744,2.469,2.989C52.645,30.985,52.821,31,52.996,31c0.705,0,1.39-0.245,1.934-0.703
		C55.61,29.725,56,28.888,56,28L55.997,27.515z M38,4.125v3.242C38,8.268,37.268,9,36.367,9h-1.734c-0.238,0-0.47,0.026-0.695,0.07
		c-0.075,0.015-0.144,0.041-0.217,0.06c-0.147,0.039-0.293,0.079-0.433,0.135c-0.082,0.033-0.158,0.075-0.237,0.113
		c-0.122,0.06-0.242,0.121-0.356,0.194c-0.078,0.049-0.15,0.104-0.223,0.159c-0.105,0.078-0.206,0.16-0.302,0.249
		c-0.068,0.063-0.132,0.128-0.195,0.196c-0.089,0.096-0.171,0.197-0.249,0.302c-0.055,0.073-0.108,0.146-0.157,0.224
		c-0.072,0.114-0.134,0.234-0.194,0.356c-0.038,0.079-0.079,0.155-0.112,0.237c-0.055,0.139-0.096,0.283-0.134,0.43
		c-0.019,0.074-0.045,0.145-0.06,0.22c-0.004,0.019-0.011,0.036-0.015,0.055H11.414L7.166,7.752L38,4.125z M9.209,52
		c-0.321-0.208-0.628-0.426-0.928-0.648c-0.137-0.102-0.268-0.208-0.401-0.313c-0.15-0.118-0.3-0.237-0.445-0.359
		c-0.166-0.141-0.327-0.284-0.486-0.43c-0.093-0.085-0.185-0.171-0.276-0.258c-0.182-0.175-0.361-0.353-0.533-0.535
		c-0.044-0.046-0.086-0.094-0.129-0.14c-1.059-1.15-1.915-2.43-2.559-3.828c-0.026-0.057-0.052-0.113-0.078-0.171
		c-0.056-0.125-0.105-0.254-0.158-0.381c1.594,0.229,3.265-0.247,4.468-1.382c1.277-1.203,3.352-1.203,4.629,0
		c2.031,1.916,5.34,1.916,7.371,0c1.277-1.203,3.352-1.203,4.629,0c2.031,1.916,5.34,1.916,7.371,0c1.277-1.203,3.352-1.203,4.629,0
		c2.031,1.916,5.34,1.916,7.371,0c0.998-0.94,2.517-1.145,3.751-0.569c-0.013,0.048-0.026,0.095-0.039,0.143
		c-0.092,0.342-0.198,0.677-0.312,1.008c-0.036,0.104-0.068,0.21-0.106,0.313c-0.128,0.348-0.272,0.687-0.424,1.021
		c-0.086,0.187-0.179,0.37-0.272,0.553c-0.08,0.157-0.163,0.312-0.249,0.466c-0.114,0.205-0.228,0.411-0.352,0.61
		c-0.002,0.003-0.005,0.007-0.007,0.01c-0.294,0.472-0.62,0.925-0.969,1.364c-0.093,0.116-0.186,0.233-0.282,0.347
		c-0.151,0.18-0.305,0.358-0.466,0.531c-0.176,0.189-0.36,0.373-0.547,0.556c-0.177,0.173-0.36,0.342-0.547,0.508
		c-0.211,0.187-0.426,0.371-0.649,0.55c-0.118,0.094-0.237,0.188-0.358,0.28c-0.344,0.26-0.694,0.515-1.066,0.756H9.209z M48,38.5
		c0,0.863-0.063,1.698-0.173,2.509c-1.87-0.667-4.042-0.296-5.513,1.091c-1.277,1.203-3.352,1.203-4.629,0
		c-2.031-1.916-5.34-1.916-7.371,0c-1.277,1.203-3.352,1.203-4.629,0c-2.031-1.916-5.34-1.916-7.371,0
		c-1.277,1.203-3.352,1.203-4.629,0c-2.031-1.916-5.339-1.916-7.372,0c-1.027,0.967-2.59,1.156-3.848,0.523
		C2.157,41.323,2,39.947,2,38.5c0-7.56,4.042-15.702,9.647-19.5h26.705C43.958,22.798,48,30.941,48,38.5z M38,17H12v-3h19v1v1h1
		h5.73c0.091,0,0.179,0.011,0.27,0.013V17z M53.643,28.766c-0.229,0.194-0.526,0.271-0.83,0.218
		c-0.455-0.079-0.812-0.528-0.813-1.023c-0.001-0.325-0.012-0.644-0.031-0.958c-0.434-6.927-6.104-12.417-13.124-12.949
		C38.724,14.022,38.599,14,38.468,14H37.73H33v-1v-0.367c0-0.9,0.732-1.633,1.633-1.633h1.734h0.783
		c9.162,0,16.72,7.421,16.847,16.541L54,28C54,28.296,53.87,28.575,53.643,28.766z"/>
</g>
<g>
</g>
<g>
</g>
<g>
</g>
<g>
</g>
<g>
</g>
<g>
</g>
<g>
</g>
<g>
</g>
<g>
</g>
<g>
</g>
<g>
</g>
<g>
</g>
<g>
</g>
<g>
</g>
<g>
</g>
</svg>
