<?xml version="1.0" encoding="iso-8859-1"?>
<!-- Generator: Adobe Illustrator 19.0.0, SVG Export Plug-In . SVG Version: 6.00 Build 0)  -->
<svg version="1.1" id="Layer_1" xmlns="http://www.w3.org/2000/svg" xmlns:xlink="http://www.w3.org/1999/xlink" x="0px" y="0px"
	 viewBox="0 0 480 480" style="enable-background:new 0 0 480 480;" xml:space="preserve">
<g>
	<g>
		<path d="M432,128h-16V88V72c0-30.9-25.1-56-56-56h-40V8c0-4.4-3.6-8-8-8c-4.4,0-8,3.6-8,8v8h-72c-30.9,0-56,25.1-56,56v8h-8
			c-4.4,0-8,3.6-8,8v20.3c0,2.2,0.9,4.4,2.6,5.9l45.4,41.9V184v248c0,10.4,6.7,19.2,16,22.5V472c0,4.4,3.6,8,8,8c4.4,0,8-3.6,8-8
			v-16h64v16c0,4.4,3.6,8,8,8c4.4,0,8-3.6,8-8v-16h56v16c0,4.4,3.6,8,8,8c4.4,0,8-3.6,8-8v-16c13.2,0,24-10.8,24-24v-24h24
			c22.1,0,40-17.9,40-40V176C480,149.5,458.5,128,432,128z M221.4,146.7L176,104.8V96h8h120v80h-80v-23.4
			C224,150.4,223.1,148.2,221.4,146.7z M400,432c0,4.4-3.6,8-8,8H232c-4.4,0-8-3.6-8-8V192h80v168h-56c-4.4,0-8,3.6-8,8
			c0,4.4,3.6,8,8,8h128c4.4,0,8-3.6,8-8c0-4.4-3.6-8-8-8h-56V192h80V432z M400,176h-80V96h80V176z M400,80H192v-8
			c0-22.1,17.9-40,40-40h128c22.1,0,40,17.9,40,40V80z M464,368c0,13.2-10.8,24-24,24h-24V184v-40h16c17.6,0,32,14.4,32,32V368z"/>
	</g>
</g>
<g>
	<g>
		<path d="M56,144c13.2,0,24-10.8,24-24v-8c0-4.4-3.6-8-8-8s-8,3.6-8,8v8c0,4.4-3.6,8-8,8c-13.2,0-24,10.8-24,24s10.8,24,24,24
			c4.4,0,8,3.6,8,8c0,4.4-3.6,8-8,8c-13.2,0-24,10.8-24,24v8c0,4.4,3.6,8,8,8s8-3.6,8-8v-8c0-4.4,3.6-8,8-8c13.2,0,24-10.8,24-24
			s-10.8-24-24-24c-4.4,0-8-3.6-8-8C48,147.6,51.6,144,56,144z"/>
	</g>
</g>
<g>
	<g>
		<path d="M72,56c-4.4,0-8,3.6-8,8v16c0,4.4,3.6,8,8,8s8-3.6,8-8V64C80,59.6,76.4,56,72,56z"/>
	</g>
</g>
<g>
	<g>
		<path d="M120,144c13.2,0,24-10.8,24-24v-8c0-4.4-3.6-8-8-8c-4.4,0-8,3.6-8,8v8c0,4.4-3.6,8-8,8c-13.2,0-24,10.8-24,24
			s10.8,24,24,24c4.4,0,8,3.6,8,8c0,4.4-3.6,8-8,8c-13.2,0-24,10.8-24,24v8c0,4.4,3.6,8,8,8s8-3.6,8-8v-8c0-4.4,3.6-8,8-8
			c13.2,0,24-10.8,24-24s-10.8-24-24-24c-4.4,0-8-3.6-8-8C112,147.6,115.6,144,120,144z"/>
	</g>
</g>
<g>
	<g>
		<path d="M136,56c-4.4,0-8,3.6-8,8v16c0,4.4,3.6,8,8,8c4.4,0,8-3.6,8-8V64C144,59.6,140.4,56,136,56z"/>
	</g>
</g>
<g>
	<g>
		<path d="M99.2,320H96v1.1c0-1.5-5.9-1.7-9.6-1.7c-22.4,0-39.2,24.9-39.2,56.3c0,24,11.2,45.4,27.2,53.1l0.2,0.1
			c4.2,2,8.7,3,13.2,3c22.4,0,40-25.7,40-57.1C128,349.6,116.4,328,99.2,320z M77,379.4c-0.2,0.5-0.5,1-0.7,1.6
			c-0.9,2-1.8,4.1-2.6,6.1c0,0.1-0.1,0.3-0.1,0.4c-0.7,1.9-1.4,3.8-2,5.7c-0.2,0.5-0.3,1.1-0.5,1.6c-0.6,2.1-1.1,4.2-1.5,6.4
			c0,0.1,0,0.1,0,0.2c-3.6-7-5.6-16-5.6-25.5c0-21.6,11-39.9,24-39.9c0.4,0,0.7,0,1.1,0.1v0.1c0.2,2.3,0.3,4.6,0.2,6.8
			c0,0.5,0,1.1-0.1,1.6c-0.2,2.2-0.4,4.5-0.9,6.6c-1.7,7.6-5.1,14.9-8.7,22.6C78.7,375.6,77.9,377.5,77,379.4z M85.2,415.7
			c0-0.1,0-0.2,0-0.2c-0.3-1.6-0.4-3-0.4-4.4c0-10.2,4.6-20,9.5-30.5c3.8-8.2,7.8-16.7,9.8-25.9c0.5-2.1,0.8-4.3,1.1-6.5
			c4.3,7.3,7,17.2,7,27.8C112,399.3,99,418.6,85.2,415.7z"/>
	</g>
</g>
<g>
	<g>
		<path d="M88,248c-81.7,0-88,18.4-88,24v152c0,30.9,25.1,56,56,56h64c30.9,0,56-25.1,56-56V272C176,266.4,169.7,248,88,248z
			 M20.4,271.9c1.1-0.4,2.4-0.8,3.9-1.2c0.1,0,0.3-0.1,0.4-0.1c1.5-0.4,3.2-0.8,5-1.3c0.1,0,0.2,0,0.3-0.1c1.9-0.4,3.9-0.8,6.1-1.2
			c0.4-0.1,0.7-0.1,1.1-0.2c2.2-0.4,4.5-0.8,7-1.1c0.4,0,0.8-0.1,1.1-0.2c2.5-0.3,5.2-0.7,8-0.9c0.2,0,0.3,0,0.5,0
			c2.9-0.3,6-0.5,9.2-0.7c0.6,0,1.2-0.1,1.8-0.1c3.2-0.2,6.5-0.4,9.9-0.5c0.6,0,1.3,0,1.9-0.1c3.7-0.1,7.4-0.2,11.4-0.2
			s7.7,0.1,11.4,0.2c0.6,0,1.3,0,1.9,0.1c3.4,0.1,6.7,0.3,9.9,0.5c0.6,0,1.2,0.1,1.8,0.1c3.2,0.2,6.3,0.5,9.2,0.7c0.2,0,0.3,0,0.5,0
			c2.8,0.3,5.5,0.6,8,0.9c0.4,0,0.8,0.1,1.1,0.2c2.5,0.3,4.8,0.7,7,1.1c0.4,0.1,0.7,0.1,1.1,0.2c2.2,0.4,4.2,0.8,6.1,1.2
			c0.1,0,0.2,0.1,0.3,0.1c1.8,0.4,3.5,0.8,5,1.3c0.1,0,0.3,0.1,0.4,0.1c1.5,0.4,2.8,0.8,3.9,1.2c0.1,0,0.2,0.1,0.3,0.1
			c-9.8,3.6-33.1,8-67.9,8c-34.8,0-58.1-4.4-67.9-8C20.2,272,20.3,271.9,20.4,271.9z M160,424c0,22.1-17.9,40-40,40H56
			c-22.1,0-40-17.9-40-40V287.2c12.3,4.8,33.9,8.8,72,8.8c38.1,0,59.7-4,72-8.8V424z"/>
	</g>
</g>
<g>
	<g>
		<circle cx="376" cy="416" r="8"/>
	</g>
</g>
<g>
	<g>
		<circle cx="344" cy="400" r="8"/>
	</g>
</g>
<g>
	<g>
		<circle cx="312" cy="416" r="8"/>
	</g>
</g>
<g>
	<g>
		<circle cx="280" cy="400" r="8"/>
	</g>
</g>
<g>
	<g>
		<circle cx="248" cy="416" r="8"/>
	</g>
</g>
<g>
</g>
<g>
</g>
<g>
</g>
<g>
</g>
<g>
</g>
<g>
</g>
<g>
</g>
<g>
</g>
<g>
</g>
<g>
</g>
<g>
</g>
<g>
</g>
<g>
</g>
<g>
</g>
<g>
</g>
</svg>
